<svg width="2798" height="396" viewBox="0 0 2798 396" fill="none" xmlns="http://www.w3.org/2000/svg">
<g clip-path="url(#clip0_1625_27)">
<path d="M2617.42 17.6909C2609.72 38.4683 2598.51 69.8046 2583.8 111.7C2564.73 111.7 2536.13 111.7 2498 111.7C2498 160.407 2498 233.639 2498 331.394C2498 348.766 2491.97 363.582 2479.93 375.844C2467.89 388.106 2453.34 394.237 2436.28 394.237C2427.91 394.237 2415.04 394.237 2397.64 394.237C2397.64 331.564 2397.64 237.386 2397.64 111.7C2378.58 111.7 2349.97 111.7 2311.84 111.7C2304.48 90.9223 2293.27 59.5862 2278.22 17.6909C2334.75 17.6909 2391.29 17.6909 2447.82 17.6909C2504.35 17.6909 2560.88 17.6909 2617.42 17.6909Z" fill="#F0861A"/>
<path d="M2651.03 17.6909C2683.48 17.6909 2732.32 17.6909 2797.55 17.6909C2797.55 101.141 2797.55 226.656 2797.55 394.237C2775.14 394.237 2741.69 394.237 2697.2 394.237C2697.2 333.268 2697.2 241.643 2697.2 119.364C2697.2 94.8396 2693.18 73.8919 2685.15 56.5207C2677.13 39.1495 2665.75 26.2062 2651.03 17.6909Z" fill="#F0861A"/>
<path d="M1562.79 110.862C1595.33 110.862 1621.2 120.802 1640.4 140.683C1659.93 160.564 1669.69 190.551 1669.69 230.644V384.721H1576.94V246.052C1576.94 227.165 1573.36 213.248 1566.2 204.302C1559.37 195.356 1549.61 190.882 1536.92 190.882C1522.93 190.882 1511.7 195.853 1503.24 205.793C1494.78 215.733 1490.55 230.81 1490.55 251.022V384.721H1397.8V246.052C1397.8 209.272 1384.46 190.882 1357.78 190.882C1343.46 190.882 1332.07 195.853 1323.61 205.793C1315.15 215.733 1310.92 230.81 1310.92 251.022V318.449C1310.92 318.449 1309.77 384.721 1218.18 384.721V115.335H1306.53V143.666C1316.29 132.731 1327.84 124.613 1341.18 119.312C1354.85 113.679 1369.66 110.862 1385.6 110.862C1404.15 110.862 1420.75 114.341 1435.39 121.299C1450.03 128.258 1461.91 138.861 1471.02 153.109C1481.44 139.524 1494.62 129.086 1510.56 121.797C1526.51 114.507 1543.91 110.862 1562.79 110.862Z" fill="black"/>
<path d="M1821.45 110.862C1865.38 110.862 1898.9 121.134 1922.01 141.677C1945.11 161.889 1956.66 193.036 1956.66 235.117V384.721H1870.26V349.929C1856.93 376.106 1830.89 389.194 1792.17 389.194C1771.67 389.194 1753.93 385.549 1738.96 378.259C1723.99 370.97 1712.6 361.195 1704.8 348.935C1697.31 336.344 1693.57 322.096 1693.57 306.191C1693.57 280.677 1703.16 260.962 1722.36 247.046C1741.57 232.798 1771.18 225.674 1811.2 225.674H1863.92C1862.29 197.178 1843.58 182.93 1807.79 182.93C1795.09 182.93 1782.24 185.084 1769.22 189.392C1756.21 193.367 1745.14 199 1736.03 206.29L1704.8 142.174C1719.44 132.234 1737.17 124.613 1758 119.312C1779.15 113.679 1800.3 110.862 1821.45 110.862ZM1818.04 329.551C1828.78 329.551 1838.21 326.9 1846.35 321.599C1854.48 316.297 1860.34 308.511 1863.92 298.239V274.879H1823.9C1796.89 274.879 1783.38 283.991 1783.38 302.215C1783.38 310.499 1786.47 317.126 1792.66 322.096C1798.84 327.066 1807.3 329.551 1818.04 329.551Z" fill="black"/>
<path d="M2167.98 110.863C2200.85 110.863 2227.21 120.804 2247.06 140.684C2267.24 160.566 2277.32 190.552 2277.32 230.646V384.722H2184.58V246.053C2184.58 209.274 2170.1 190.884 2141.14 190.884C2125.19 190.884 2112.34 196.185 2102.58 206.788C2093.14 217.392 2088.42 233.296 2088.42 254.502V384.722H1995.68V17.6924H2088.42V140.187C2098.51 130.579 2110.39 123.289 2124.05 118.319C2137.72 113.348 2152.37 110.863 2167.98 110.863Z" fill="black"/>
<path d="M1010.18 0C1065.23 0 1108.38 14.476 1139.63 43.428C1170.89 72.0394 1186.52 111.55 1186.52 161.961C1186.52 177.288 1186.52 200.28 1186.52 230.935C1186.52 281.005 1170.89 320.516 1139.63 349.468C1108.04 378.079 1064.89 392.386 1010.18 392.386C955.484 392.386 912.505 378.079 881.245 349.468C865.143 334.552 853.188 316.835 845.379 296.316L913.842 227.118L838.493 147.529C838.493 115.773 849.989 72.0394 881.245 43.428C912.505 14.476 955.484 0 1010.18 0ZM1080.52 233.489C1080.52 217.14 1080.52 192.446 1080.52 159.406C1080.52 139.31 1074.4 123.472 1062.17 111.891C1049.6 100.31 1032.27 94.5198 1010.18 94.5198C988.44 94.5198 971.28 100.31 958.71 111.891C946.141 123.472 939.854 139.31 939.854 159.406C939.854 175.756 939.854 200.45 939.854 233.489C939.854 253.586 946.141 269.424 958.71 281.005C971.28 292.585 988.44 298.376 1010.18 298.376C1032.27 298.376 1049.6 292.585 1062.17 281.005C1074.4 269.424 1080.52 253.586 1080.52 233.489Z" fill="black"/>
<path fill-rule="evenodd" clip-rule="evenodd" d="M893.255 226.838L724.811 394.501L373.009 39.45H709.892L893.255 226.838Z" fill="#F0861A"/>
<path fill-rule="evenodd" clip-rule="evenodd" d="M354.942 59.1758L19.6289 394.471H354.942L523.502 226.693L354.942 59.1758Z" fill="black"/>
</g>
<defs>
<clipPath id="clip0_1625_27">
<rect width="2797.55" height="396" fill="white"/>
</clipPath>
</defs>
</svg>
